G04 EAGLE Gerber RS-274X export*
G75*
%MOMM*%
%FSLAX34Y34*%
%LPD*%
%INTop Copper*%
%IPPOS*%
%AMOC8*
5,1,8,0,0,1.08239X$1,22.5*%
G01*
%ADD10C,1.600200*%
%ADD11P,1.732040X8X202.500000*%
%ADD12C,1.219200*%
%ADD13P,1.319650X8X292.500000*%
%ADD14C,0.254000*%


D10*
X393700Y165100D03*
D11*
X368300Y165100D03*
X342900Y165100D03*
X317500Y165100D03*
X292100Y165100D03*
X266700Y165100D03*
X241300Y165100D03*
X215900Y165100D03*
X190500Y165100D03*
X165100Y165100D03*
X139700Y165100D03*
X114300Y165100D03*
X88900Y165100D03*
X63500Y165100D03*
X38100Y165100D03*
X12700Y165100D03*
X12700Y12700D03*
X38100Y12700D03*
X63500Y12700D03*
X88900Y12700D03*
X114300Y12700D03*
X139700Y12700D03*
X165100Y12700D03*
X190500Y12700D03*
X215900Y12700D03*
X241300Y12700D03*
X266700Y12700D03*
X292100Y12700D03*
X317500Y12700D03*
X342900Y12700D03*
X368300Y12700D03*
X393700Y12700D03*
D12*
X254000Y76200D03*
D13*
X279400Y101600D03*
X254000Y101600D03*
X279400Y127000D03*
X254000Y152400D03*
X254000Y127000D03*
X228600Y152400D03*
X228600Y127000D03*
X203200Y152400D03*
X203200Y127000D03*
X177800Y152400D03*
X177800Y127000D03*
X152400Y152400D03*
X127000Y127000D03*
X152400Y127000D03*
X127000Y101600D03*
X152400Y101600D03*
X127000Y76200D03*
X152400Y76200D03*
X127000Y50800D03*
X152400Y25400D03*
X152400Y50800D03*
X177800Y25400D03*
X177800Y50800D03*
X203200Y25400D03*
X203200Y50800D03*
X228600Y25400D03*
X228600Y50800D03*
X254000Y25400D03*
X279400Y50800D03*
X254000Y50800D03*
X279400Y76200D03*
D14*
X279400Y152400D02*
X292100Y165100D01*
X279400Y152400D02*
X254000Y152400D01*
X177800Y152400D02*
X167640Y142240D01*
X139700Y149860D02*
X139700Y165100D01*
X139700Y149860D02*
X147320Y142240D01*
X167640Y142240D01*
X142240Y137160D02*
X114300Y165100D01*
X167640Y137160D02*
X177800Y127000D01*
X167640Y137160D02*
X142240Y137160D01*
X233680Y38100D02*
X241300Y30480D01*
X215900Y38100D02*
X203200Y50800D01*
X241300Y30480D02*
X241300Y12700D01*
X233680Y38100D02*
X215900Y38100D01*
X304800Y25400D02*
X317500Y12700D01*
X304800Y25400D02*
X254000Y25400D01*
X127000Y25400D02*
X114300Y12700D01*
X127000Y25400D02*
X152400Y25400D01*
M02*
