M48
;GenerationSoftware,Autodesk,EAGLE,9.6.2*%
;CreationDate,2023-01-17T00:03:54Z*%
FMAT,2
ICI,OFF
METRIC,TZ,000.000
T1C0.813
%
G90
M71
T1
X39370Y16510
X36830Y16510
X34290Y16510
X31750Y16510
X29210Y16510
X26670Y16510
X24130Y16510
X21590Y16510
X19050Y16510
X16510Y16510
X13970Y16510
X11430Y16510
X8890Y16510
X6350Y16510
X3810Y16510
X1270Y16510
X1270Y1270
X3810Y1270
X6350Y1270
X8890Y1270
X11430Y1270
X13970Y1270
X16510Y1270
X19050Y1270
X21590Y1270
X24130Y1270
X26670Y1270
X29210Y1270
X31750Y1270
X34290Y1270
X36830Y1270
X39370Y1270
X25400Y7620
X27940Y10160
X25400Y10160
X27940Y12700
X25400Y15240
X25400Y12700
X22860Y15240
X22860Y12700
X20320Y15240
X20320Y12700
X17780Y15240
X17780Y12700
X15240Y15240
X12700Y12700
X15240Y12700
X12700Y10160
X15240Y10160
X12700Y7620
X15240Y7620
X12700Y5080
X15240Y2540
X15240Y5080
X17780Y2540
X17780Y5080
X20320Y2540
X20320Y5080
X22860Y2540
X22860Y5080
X25400Y2540
X27940Y5080
X25400Y5080
X27940Y7620
M30