G04 EAGLE Gerber RS-274X export*
G75*
%MOMM*%
%FSLAX34Y34*%
%LPD*%
%INSilkscreen Top*%
%IPPOS*%
%AMOC8*
5,1,8,0,0,1.08239X$1,22.5*%
G01*
%ADD10C,0.152400*%
%ADD11C,0.254000*%


D10*
X10922Y39539D02*
X16341Y39539D01*
X12728Y44958D02*
X12728Y31411D01*
X12729Y31411D02*
X12731Y31310D01*
X12737Y31209D01*
X12746Y31108D01*
X12759Y31007D01*
X12776Y30907D01*
X12797Y30808D01*
X12821Y30710D01*
X12849Y30613D01*
X12881Y30516D01*
X12916Y30421D01*
X12955Y30328D01*
X12997Y30236D01*
X13043Y30145D01*
X13092Y30056D01*
X13144Y29970D01*
X13200Y29885D01*
X13258Y29802D01*
X13320Y29722D01*
X13385Y29644D01*
X13452Y29568D01*
X13522Y29495D01*
X13595Y29425D01*
X13671Y29358D01*
X13749Y29293D01*
X13829Y29231D01*
X13912Y29173D01*
X13997Y29117D01*
X14084Y29065D01*
X14172Y29016D01*
X14263Y28970D01*
X14355Y28928D01*
X14448Y28889D01*
X14543Y28854D01*
X14640Y28822D01*
X14737Y28794D01*
X14835Y28770D01*
X14934Y28749D01*
X15034Y28732D01*
X15135Y28719D01*
X15236Y28710D01*
X15337Y28704D01*
X15438Y28702D01*
X16341Y28702D01*
X24828Y28702D02*
X29344Y28702D01*
X24828Y28702D02*
X24727Y28704D01*
X24626Y28710D01*
X24525Y28719D01*
X24424Y28732D01*
X24324Y28749D01*
X24225Y28770D01*
X24127Y28794D01*
X24030Y28822D01*
X23933Y28854D01*
X23838Y28889D01*
X23745Y28928D01*
X23653Y28970D01*
X23562Y29016D01*
X23474Y29065D01*
X23387Y29117D01*
X23302Y29173D01*
X23219Y29231D01*
X23139Y29293D01*
X23061Y29358D01*
X22985Y29425D01*
X22912Y29495D01*
X22842Y29568D01*
X22775Y29644D01*
X22710Y29722D01*
X22648Y29802D01*
X22590Y29885D01*
X22534Y29970D01*
X22482Y30056D01*
X22433Y30145D01*
X22387Y30236D01*
X22345Y30328D01*
X22306Y30421D01*
X22271Y30516D01*
X22239Y30613D01*
X22211Y30710D01*
X22187Y30808D01*
X22166Y30907D01*
X22149Y31007D01*
X22136Y31108D01*
X22127Y31209D01*
X22121Y31310D01*
X22119Y31411D01*
X22119Y35927D01*
X22121Y36046D01*
X22127Y36166D01*
X22137Y36285D01*
X22151Y36403D01*
X22168Y36522D01*
X22190Y36639D01*
X22215Y36756D01*
X22245Y36871D01*
X22278Y36986D01*
X22315Y37100D01*
X22355Y37212D01*
X22400Y37323D01*
X22448Y37432D01*
X22499Y37540D01*
X22554Y37646D01*
X22613Y37750D01*
X22675Y37852D01*
X22740Y37952D01*
X22809Y38050D01*
X22881Y38146D01*
X22956Y38239D01*
X23033Y38329D01*
X23114Y38417D01*
X23198Y38502D01*
X23285Y38584D01*
X23374Y38664D01*
X23466Y38740D01*
X23560Y38814D01*
X23657Y38884D01*
X23755Y38951D01*
X23856Y39015D01*
X23960Y39075D01*
X24065Y39132D01*
X24172Y39185D01*
X24280Y39235D01*
X24390Y39281D01*
X24502Y39323D01*
X24615Y39362D01*
X24729Y39397D01*
X24844Y39428D01*
X24961Y39456D01*
X25078Y39479D01*
X25195Y39499D01*
X25314Y39515D01*
X25433Y39527D01*
X25552Y39535D01*
X25671Y39539D01*
X25791Y39539D01*
X25910Y39535D01*
X26029Y39527D01*
X26148Y39515D01*
X26267Y39499D01*
X26384Y39479D01*
X26501Y39456D01*
X26618Y39428D01*
X26733Y39397D01*
X26847Y39362D01*
X26960Y39323D01*
X27072Y39281D01*
X27182Y39235D01*
X27290Y39185D01*
X27397Y39132D01*
X27502Y39075D01*
X27606Y39015D01*
X27707Y38951D01*
X27805Y38884D01*
X27902Y38814D01*
X27996Y38740D01*
X28088Y38664D01*
X28177Y38584D01*
X28264Y38502D01*
X28348Y38417D01*
X28429Y38329D01*
X28506Y38239D01*
X28581Y38146D01*
X28653Y38050D01*
X28722Y37952D01*
X28787Y37852D01*
X28849Y37750D01*
X28908Y37646D01*
X28963Y37540D01*
X29014Y37432D01*
X29062Y37323D01*
X29107Y37212D01*
X29147Y37100D01*
X29184Y36986D01*
X29217Y36871D01*
X29247Y36756D01*
X29272Y36639D01*
X29294Y36522D01*
X29311Y36403D01*
X29325Y36285D01*
X29335Y36166D01*
X29341Y36046D01*
X29343Y35927D01*
X29344Y35927D02*
X29344Y34121D01*
X22119Y34121D01*
X38393Y28702D02*
X42005Y28702D01*
X38393Y28702D02*
X38292Y28704D01*
X38191Y28710D01*
X38090Y28719D01*
X37989Y28732D01*
X37889Y28749D01*
X37790Y28770D01*
X37692Y28794D01*
X37595Y28822D01*
X37498Y28854D01*
X37403Y28889D01*
X37310Y28928D01*
X37218Y28970D01*
X37127Y29016D01*
X37039Y29065D01*
X36952Y29117D01*
X36867Y29173D01*
X36784Y29231D01*
X36704Y29293D01*
X36626Y29358D01*
X36550Y29425D01*
X36477Y29495D01*
X36407Y29568D01*
X36340Y29644D01*
X36275Y29722D01*
X36213Y29802D01*
X36155Y29885D01*
X36099Y29970D01*
X36047Y30056D01*
X35998Y30145D01*
X35952Y30236D01*
X35910Y30328D01*
X35871Y30421D01*
X35836Y30516D01*
X35804Y30613D01*
X35776Y30710D01*
X35752Y30808D01*
X35731Y30907D01*
X35714Y31007D01*
X35701Y31108D01*
X35692Y31209D01*
X35686Y31310D01*
X35684Y31411D01*
X35684Y36830D01*
X35686Y36931D01*
X35692Y37032D01*
X35701Y37133D01*
X35714Y37234D01*
X35731Y37334D01*
X35752Y37433D01*
X35776Y37531D01*
X35804Y37628D01*
X35836Y37725D01*
X35871Y37820D01*
X35910Y37913D01*
X35952Y38005D01*
X35998Y38096D01*
X36047Y38185D01*
X36099Y38271D01*
X36155Y38356D01*
X36213Y38439D01*
X36275Y38519D01*
X36340Y38597D01*
X36407Y38673D01*
X36477Y38746D01*
X36550Y38816D01*
X36626Y38883D01*
X36704Y38948D01*
X36784Y39010D01*
X36867Y39068D01*
X36952Y39124D01*
X37039Y39176D01*
X37127Y39225D01*
X37218Y39271D01*
X37310Y39313D01*
X37403Y39352D01*
X37498Y39387D01*
X37595Y39419D01*
X37692Y39447D01*
X37790Y39471D01*
X37889Y39492D01*
X37989Y39509D01*
X38090Y39522D01*
X38191Y39531D01*
X38292Y39537D01*
X38393Y39539D01*
X42005Y39539D01*
X48171Y44958D02*
X48171Y28702D01*
X48171Y39539D02*
X52687Y39539D01*
X52791Y39537D01*
X52894Y39531D01*
X52998Y39521D01*
X53101Y39507D01*
X53203Y39489D01*
X53304Y39468D01*
X53405Y39442D01*
X53504Y39413D01*
X53603Y39380D01*
X53700Y39343D01*
X53795Y39302D01*
X53889Y39258D01*
X53981Y39210D01*
X54071Y39159D01*
X54160Y39104D01*
X54246Y39046D01*
X54329Y38984D01*
X54411Y38920D01*
X54489Y38852D01*
X54565Y38782D01*
X54639Y38709D01*
X54709Y38632D01*
X54777Y38554D01*
X54841Y38472D01*
X54903Y38389D01*
X54961Y38303D01*
X55016Y38214D01*
X55067Y38124D01*
X55115Y38032D01*
X55159Y37938D01*
X55200Y37843D01*
X55237Y37746D01*
X55270Y37647D01*
X55299Y37548D01*
X55325Y37447D01*
X55346Y37346D01*
X55364Y37244D01*
X55378Y37141D01*
X55388Y37037D01*
X55394Y36934D01*
X55396Y36830D01*
X55396Y28702D01*
X65327Y35024D02*
X69391Y35024D01*
X65327Y35024D02*
X65215Y35022D01*
X65104Y35016D01*
X64993Y35006D01*
X64882Y34993D01*
X64772Y34975D01*
X64663Y34953D01*
X64554Y34928D01*
X64446Y34899D01*
X64340Y34866D01*
X64234Y34829D01*
X64130Y34789D01*
X64028Y34745D01*
X63927Y34697D01*
X63828Y34646D01*
X63730Y34591D01*
X63635Y34533D01*
X63542Y34472D01*
X63451Y34407D01*
X63362Y34339D01*
X63276Y34268D01*
X63193Y34195D01*
X63112Y34118D01*
X63033Y34038D01*
X62958Y33956D01*
X62886Y33871D01*
X62816Y33784D01*
X62750Y33694D01*
X62687Y33602D01*
X62627Y33507D01*
X62571Y33411D01*
X62518Y33313D01*
X62469Y33213D01*
X62423Y33111D01*
X62381Y33008D01*
X62342Y32903D01*
X62307Y32797D01*
X62276Y32690D01*
X62249Y32582D01*
X62225Y32473D01*
X62206Y32363D01*
X62190Y32253D01*
X62178Y32142D01*
X62170Y32030D01*
X62166Y31919D01*
X62166Y31807D01*
X62170Y31696D01*
X62178Y31584D01*
X62190Y31473D01*
X62206Y31363D01*
X62225Y31253D01*
X62249Y31144D01*
X62276Y31036D01*
X62307Y30929D01*
X62342Y30823D01*
X62381Y30718D01*
X62423Y30615D01*
X62469Y30513D01*
X62518Y30413D01*
X62571Y30315D01*
X62627Y30219D01*
X62687Y30124D01*
X62750Y30032D01*
X62816Y29942D01*
X62886Y29855D01*
X62958Y29770D01*
X63033Y29688D01*
X63112Y29608D01*
X63193Y29531D01*
X63276Y29458D01*
X63362Y29387D01*
X63451Y29319D01*
X63542Y29254D01*
X63635Y29193D01*
X63730Y29135D01*
X63828Y29080D01*
X63927Y29029D01*
X64028Y28981D01*
X64130Y28937D01*
X64234Y28897D01*
X64340Y28860D01*
X64446Y28827D01*
X64554Y28798D01*
X64663Y28773D01*
X64772Y28751D01*
X64882Y28733D01*
X64993Y28720D01*
X65104Y28710D01*
X65215Y28704D01*
X65327Y28702D01*
X69391Y28702D01*
X69391Y36830D01*
X69390Y36830D02*
X69388Y36931D01*
X69382Y37032D01*
X69373Y37133D01*
X69360Y37234D01*
X69343Y37334D01*
X69322Y37433D01*
X69298Y37531D01*
X69270Y37628D01*
X69238Y37725D01*
X69203Y37820D01*
X69164Y37913D01*
X69122Y38005D01*
X69076Y38096D01*
X69027Y38185D01*
X68975Y38271D01*
X68919Y38356D01*
X68861Y38439D01*
X68799Y38519D01*
X68734Y38597D01*
X68667Y38673D01*
X68597Y38746D01*
X68524Y38816D01*
X68448Y38883D01*
X68370Y38948D01*
X68290Y39010D01*
X68207Y39068D01*
X68122Y39124D01*
X68036Y39176D01*
X67947Y39225D01*
X67856Y39271D01*
X67764Y39313D01*
X67671Y39352D01*
X67576Y39387D01*
X67479Y39419D01*
X67382Y39447D01*
X67284Y39471D01*
X67185Y39492D01*
X67085Y39509D01*
X66984Y39522D01*
X66883Y39531D01*
X66782Y39537D01*
X66681Y39539D01*
X63069Y39539D01*
X75786Y39539D02*
X79399Y28702D01*
X83011Y39539D01*
D11*
X101600Y0D02*
X101600Y177800D01*
X304800Y170180D02*
X304800Y0D01*
X304800Y170180D02*
X292100Y182880D01*
X266700Y152400D02*
X292100Y127000D01*
X292100Y25400D01*
X317500Y88900D02*
X342900Y88900D01*
X330200Y101600D02*
X317500Y88900D01*
X330200Y76200D01*
D10*
X25393Y140462D02*
X22289Y140462D01*
X25393Y140462D02*
X25504Y140464D01*
X25614Y140470D01*
X25725Y140480D01*
X25835Y140494D01*
X25944Y140511D01*
X26053Y140533D01*
X26161Y140558D01*
X26267Y140588D01*
X26373Y140621D01*
X26478Y140658D01*
X26581Y140698D01*
X26682Y140743D01*
X26782Y140790D01*
X26881Y140842D01*
X26977Y140897D01*
X27071Y140955D01*
X27163Y141016D01*
X27253Y141081D01*
X27341Y141149D01*
X27426Y141220D01*
X27508Y141294D01*
X27588Y141371D01*
X27665Y141451D01*
X27739Y141533D01*
X27810Y141618D01*
X27878Y141706D01*
X27943Y141796D01*
X28004Y141888D01*
X28062Y141982D01*
X28117Y142078D01*
X28169Y142177D01*
X28216Y142277D01*
X28261Y142378D01*
X28301Y142481D01*
X28338Y142586D01*
X28371Y142692D01*
X28401Y142798D01*
X28426Y142906D01*
X28448Y143015D01*
X28465Y143124D01*
X28479Y143234D01*
X28489Y143345D01*
X28495Y143455D01*
X28497Y143566D01*
X28495Y143677D01*
X28489Y143787D01*
X28479Y143898D01*
X28465Y144008D01*
X28448Y144117D01*
X28426Y144226D01*
X28401Y144334D01*
X28371Y144440D01*
X28338Y144546D01*
X28301Y144651D01*
X28261Y144754D01*
X28216Y144855D01*
X28169Y144955D01*
X28117Y145054D01*
X28062Y145150D01*
X28004Y145244D01*
X27943Y145336D01*
X27878Y145426D01*
X27810Y145514D01*
X27739Y145599D01*
X27665Y145681D01*
X27588Y145761D01*
X27508Y145838D01*
X27426Y145912D01*
X27341Y145983D01*
X27253Y146051D01*
X27163Y146116D01*
X27071Y146177D01*
X26977Y146235D01*
X26881Y146290D01*
X26782Y146342D01*
X26682Y146389D01*
X26581Y146434D01*
X26478Y146474D01*
X26373Y146511D01*
X26267Y146544D01*
X26161Y146574D01*
X26053Y146599D01*
X25944Y146621D01*
X25835Y146638D01*
X25725Y146652D01*
X25614Y146662D01*
X25504Y146668D01*
X25393Y146670D01*
X26014Y151638D02*
X22289Y151638D01*
X26014Y151638D02*
X26113Y151636D01*
X26211Y151630D01*
X26310Y151620D01*
X26407Y151607D01*
X26505Y151589D01*
X26601Y151568D01*
X26697Y151542D01*
X26791Y151513D01*
X26884Y151481D01*
X26976Y151444D01*
X27066Y151404D01*
X27155Y151360D01*
X27242Y151313D01*
X27327Y151263D01*
X27409Y151209D01*
X27490Y151152D01*
X27568Y151092D01*
X27644Y151028D01*
X27717Y150962D01*
X27788Y150893D01*
X27856Y150821D01*
X27920Y150746D01*
X27982Y150669D01*
X28041Y150590D01*
X28096Y150508D01*
X28149Y150424D01*
X28197Y150339D01*
X28243Y150251D01*
X28285Y150161D01*
X28323Y150070D01*
X28357Y149978D01*
X28388Y149884D01*
X28415Y149789D01*
X28439Y149693D01*
X28458Y149596D01*
X28474Y149499D01*
X28486Y149401D01*
X28494Y149302D01*
X28498Y149203D01*
X28498Y149105D01*
X28494Y149006D01*
X28486Y148907D01*
X28474Y148809D01*
X28458Y148712D01*
X28439Y148615D01*
X28415Y148519D01*
X28388Y148424D01*
X28357Y148330D01*
X28323Y148238D01*
X28285Y148147D01*
X28243Y148057D01*
X28197Y147969D01*
X28149Y147884D01*
X28096Y147800D01*
X28041Y147718D01*
X27982Y147639D01*
X27920Y147562D01*
X27856Y147487D01*
X27788Y147415D01*
X27717Y147346D01*
X27644Y147280D01*
X27568Y147216D01*
X27490Y147156D01*
X27409Y147099D01*
X27327Y147045D01*
X27242Y146995D01*
X27155Y146948D01*
X27066Y146904D01*
X26976Y146864D01*
X26884Y146827D01*
X26791Y146795D01*
X26697Y146766D01*
X26601Y146740D01*
X26505Y146719D01*
X26407Y146701D01*
X26310Y146688D01*
X26211Y146678D01*
X26113Y146672D01*
X26014Y146670D01*
X26014Y146671D02*
X23530Y146671D01*
X37133Y151638D02*
X37237Y151636D01*
X37342Y151630D01*
X37446Y151620D01*
X37549Y151607D01*
X37652Y151589D01*
X37755Y151568D01*
X37856Y151543D01*
X37957Y151514D01*
X38056Y151481D01*
X38154Y151445D01*
X38250Y151405D01*
X38345Y151361D01*
X38439Y151314D01*
X38530Y151264D01*
X38619Y151210D01*
X38707Y151153D01*
X38792Y151092D01*
X38875Y151028D01*
X38955Y150962D01*
X39033Y150892D01*
X39109Y150820D01*
X39181Y150744D01*
X39251Y150666D01*
X39317Y150586D01*
X39381Y150503D01*
X39442Y150418D01*
X39499Y150330D01*
X39553Y150241D01*
X39603Y150150D01*
X39650Y150056D01*
X39694Y149961D01*
X39734Y149865D01*
X39770Y149767D01*
X39803Y149668D01*
X39832Y149567D01*
X39857Y149466D01*
X39878Y149363D01*
X39896Y149260D01*
X39909Y149157D01*
X39919Y149053D01*
X39925Y148948D01*
X39927Y148844D01*
X37133Y151639D02*
X37014Y151637D01*
X36896Y151631D01*
X36777Y151621D01*
X36659Y151608D01*
X36542Y151590D01*
X36425Y151568D01*
X36309Y151543D01*
X36194Y151514D01*
X36079Y151481D01*
X35966Y151444D01*
X35855Y151404D01*
X35744Y151360D01*
X35636Y151312D01*
X35529Y151261D01*
X35423Y151206D01*
X35320Y151147D01*
X35218Y151086D01*
X35119Y151021D01*
X35021Y150952D01*
X34927Y150881D01*
X34834Y150806D01*
X34744Y150729D01*
X34657Y150648D01*
X34572Y150565D01*
X34490Y150479D01*
X34411Y150390D01*
X34335Y150299D01*
X34262Y150205D01*
X34193Y150109D01*
X34126Y150010D01*
X34063Y149910D01*
X34003Y149807D01*
X33946Y149703D01*
X33894Y149596D01*
X33844Y149488D01*
X33798Y149379D01*
X33756Y149267D01*
X33718Y149155D01*
X38996Y146671D02*
X39071Y146745D01*
X39143Y146822D01*
X39213Y146901D01*
X39280Y146983D01*
X39344Y147067D01*
X39405Y147153D01*
X39463Y147241D01*
X39518Y147332D01*
X39570Y147424D01*
X39618Y147518D01*
X39663Y147613D01*
X39705Y147711D01*
X39743Y147809D01*
X39778Y147909D01*
X39809Y148010D01*
X39836Y148112D01*
X39860Y148215D01*
X39881Y148318D01*
X39897Y148423D01*
X39910Y148528D01*
X39920Y148633D01*
X39925Y148738D01*
X39927Y148844D01*
X38996Y146671D02*
X33719Y140462D01*
X39927Y140462D01*
X45290Y144808D02*
X52740Y144808D01*
X58695Y140462D02*
X58695Y151638D01*
X61800Y151638D01*
X61911Y151636D01*
X62021Y151630D01*
X62132Y151620D01*
X62242Y151606D01*
X62351Y151589D01*
X62460Y151567D01*
X62568Y151542D01*
X62674Y151512D01*
X62780Y151479D01*
X62885Y151442D01*
X62988Y151402D01*
X63089Y151357D01*
X63189Y151310D01*
X63288Y151258D01*
X63384Y151203D01*
X63478Y151145D01*
X63570Y151084D01*
X63660Y151019D01*
X63748Y150951D01*
X63833Y150880D01*
X63915Y150806D01*
X63995Y150729D01*
X64072Y150649D01*
X64146Y150567D01*
X64217Y150482D01*
X64285Y150394D01*
X64350Y150304D01*
X64411Y150212D01*
X64469Y150118D01*
X64524Y150022D01*
X64576Y149923D01*
X64623Y149823D01*
X64668Y149722D01*
X64708Y149619D01*
X64745Y149514D01*
X64778Y149408D01*
X64808Y149302D01*
X64833Y149194D01*
X64855Y149085D01*
X64872Y148976D01*
X64886Y148866D01*
X64896Y148755D01*
X64902Y148645D01*
X64904Y148534D01*
X64902Y148423D01*
X64896Y148313D01*
X64886Y148202D01*
X64872Y148092D01*
X64855Y147983D01*
X64833Y147874D01*
X64808Y147766D01*
X64778Y147660D01*
X64745Y147554D01*
X64708Y147449D01*
X64668Y147346D01*
X64623Y147245D01*
X64576Y147145D01*
X64524Y147046D01*
X64469Y146950D01*
X64411Y146856D01*
X64350Y146764D01*
X64285Y146674D01*
X64217Y146586D01*
X64146Y146501D01*
X64072Y146419D01*
X63995Y146339D01*
X63915Y146262D01*
X63833Y146188D01*
X63748Y146117D01*
X63660Y146049D01*
X63570Y145984D01*
X63478Y145923D01*
X63384Y145865D01*
X63288Y145810D01*
X63189Y145758D01*
X63089Y145711D01*
X62988Y145666D01*
X62885Y145626D01*
X62780Y145589D01*
X62674Y145556D01*
X62568Y145526D01*
X62460Y145501D01*
X62351Y145479D01*
X62242Y145462D01*
X62132Y145448D01*
X62021Y145438D01*
X61911Y145432D01*
X61800Y145430D01*
X61800Y145429D02*
X58695Y145429D01*
X69208Y147913D02*
X69208Y140462D01*
X68898Y151017D02*
X68898Y151638D01*
X69518Y151638D01*
X69518Y151017D01*
X68898Y151017D01*
X74344Y147913D02*
X74344Y140462D01*
X74344Y147913D02*
X77449Y147913D01*
X77533Y147911D01*
X77616Y147906D01*
X77699Y147896D01*
X77782Y147883D01*
X77864Y147866D01*
X77945Y147846D01*
X78025Y147822D01*
X78104Y147794D01*
X78181Y147763D01*
X78257Y147729D01*
X78332Y147691D01*
X78405Y147649D01*
X78475Y147605D01*
X78544Y147557D01*
X78611Y147507D01*
X78675Y147453D01*
X78736Y147397D01*
X78796Y147337D01*
X78852Y147276D01*
X78906Y147212D01*
X78956Y147145D01*
X79004Y147076D01*
X79048Y147006D01*
X79090Y146933D01*
X79128Y146858D01*
X79162Y146782D01*
X79193Y146705D01*
X79221Y146626D01*
X79245Y146546D01*
X79265Y146465D01*
X79282Y146383D01*
X79295Y146300D01*
X79305Y146217D01*
X79310Y146134D01*
X79312Y146050D01*
X79311Y146050D02*
X79311Y140462D01*
X30304Y137033D02*
X30304Y125857D01*
X30304Y137033D02*
X35271Y137033D01*
X35271Y132066D02*
X30304Y132066D01*
X39751Y127720D02*
X39751Y137033D01*
X39751Y127720D02*
X39753Y127636D01*
X39758Y127553D01*
X39768Y127470D01*
X39781Y127387D01*
X39798Y127305D01*
X39818Y127224D01*
X39842Y127144D01*
X39870Y127065D01*
X39901Y126988D01*
X39935Y126912D01*
X39973Y126837D01*
X40015Y126764D01*
X40059Y126694D01*
X40107Y126625D01*
X40157Y126558D01*
X40211Y126494D01*
X40267Y126433D01*
X40327Y126373D01*
X40388Y126317D01*
X40452Y126263D01*
X40519Y126213D01*
X40588Y126165D01*
X40658Y126121D01*
X40731Y126079D01*
X40806Y126041D01*
X40882Y126007D01*
X40959Y125976D01*
X41038Y125948D01*
X41118Y125924D01*
X41199Y125904D01*
X41281Y125887D01*
X41364Y125874D01*
X41447Y125864D01*
X41530Y125859D01*
X41614Y125857D01*
X47855Y130203D02*
X50649Y130203D01*
X47855Y130203D02*
X47763Y130201D01*
X47671Y130195D01*
X47579Y130185D01*
X47488Y130172D01*
X47397Y130154D01*
X47307Y130133D01*
X47219Y130108D01*
X47131Y130079D01*
X47045Y130046D01*
X46960Y130010D01*
X46877Y129970D01*
X46795Y129927D01*
X46716Y129880D01*
X46638Y129830D01*
X46563Y129777D01*
X46490Y129721D01*
X46419Y129661D01*
X46351Y129599D01*
X46286Y129534D01*
X46224Y129466D01*
X46164Y129395D01*
X46108Y129322D01*
X46055Y129247D01*
X46005Y129169D01*
X45958Y129090D01*
X45915Y129008D01*
X45875Y128925D01*
X45839Y128840D01*
X45806Y128754D01*
X45777Y128666D01*
X45752Y128578D01*
X45731Y128488D01*
X45713Y128397D01*
X45700Y128306D01*
X45690Y128214D01*
X45684Y128122D01*
X45682Y128030D01*
X45684Y127938D01*
X45690Y127846D01*
X45700Y127754D01*
X45713Y127663D01*
X45731Y127572D01*
X45752Y127482D01*
X45777Y127394D01*
X45806Y127306D01*
X45839Y127220D01*
X45875Y127135D01*
X45915Y127052D01*
X45958Y126970D01*
X46005Y126891D01*
X46055Y126813D01*
X46108Y126738D01*
X46164Y126665D01*
X46224Y126594D01*
X46286Y126526D01*
X46351Y126461D01*
X46419Y126399D01*
X46490Y126339D01*
X46563Y126283D01*
X46638Y126230D01*
X46716Y126180D01*
X46795Y126133D01*
X46877Y126090D01*
X46960Y126050D01*
X47045Y126014D01*
X47131Y125981D01*
X47219Y125952D01*
X47307Y125927D01*
X47397Y125906D01*
X47488Y125888D01*
X47579Y125875D01*
X47671Y125865D01*
X47763Y125859D01*
X47855Y125857D01*
X50649Y125857D01*
X50649Y131445D01*
X50647Y131529D01*
X50642Y131612D01*
X50632Y131695D01*
X50619Y131778D01*
X50602Y131860D01*
X50582Y131941D01*
X50558Y132021D01*
X50530Y132100D01*
X50499Y132177D01*
X50465Y132253D01*
X50427Y132328D01*
X50385Y132401D01*
X50341Y132471D01*
X50293Y132540D01*
X50243Y132607D01*
X50189Y132671D01*
X50133Y132732D01*
X50073Y132792D01*
X50012Y132848D01*
X49948Y132902D01*
X49881Y132952D01*
X49812Y133000D01*
X49742Y133044D01*
X49669Y133086D01*
X49594Y133124D01*
X49518Y133158D01*
X49441Y133189D01*
X49362Y133217D01*
X49282Y133241D01*
X49201Y133261D01*
X49119Y133278D01*
X49036Y133291D01*
X48953Y133301D01*
X48870Y133306D01*
X48786Y133308D01*
X46303Y133308D01*
X56974Y130203D02*
X60078Y128961D01*
X56973Y130203D02*
X56901Y130234D01*
X56831Y130268D01*
X56762Y130306D01*
X56695Y130347D01*
X56630Y130391D01*
X56568Y130439D01*
X56508Y130489D01*
X56450Y130542D01*
X56395Y130598D01*
X56343Y130657D01*
X56294Y130718D01*
X56248Y130781D01*
X56205Y130846D01*
X56165Y130914D01*
X56128Y130983D01*
X56095Y131054D01*
X56066Y131127D01*
X56040Y131201D01*
X56017Y131276D01*
X55999Y131352D01*
X55984Y131429D01*
X55972Y131507D01*
X55965Y131585D01*
X55961Y131663D01*
X55962Y131741D01*
X55966Y131820D01*
X55973Y131898D01*
X55985Y131975D01*
X56000Y132052D01*
X56020Y132128D01*
X56042Y132203D01*
X56069Y132277D01*
X56099Y132349D01*
X56132Y132420D01*
X56169Y132489D01*
X56209Y132557D01*
X56253Y132622D01*
X56299Y132685D01*
X56349Y132746D01*
X56401Y132804D01*
X56456Y132860D01*
X56514Y132913D01*
X56575Y132963D01*
X56637Y133010D01*
X56702Y133053D01*
X56769Y133094D01*
X56838Y133132D01*
X56909Y133165D01*
X56981Y133196D01*
X57055Y133223D01*
X57129Y133246D01*
X57205Y133266D01*
X57282Y133282D01*
X57359Y133294D01*
X57437Y133302D01*
X57516Y133307D01*
X57594Y133308D01*
X57595Y133307D02*
X57764Y133303D01*
X57934Y133294D01*
X58103Y133282D01*
X58271Y133265D01*
X58440Y133244D01*
X58607Y133220D01*
X58774Y133191D01*
X58941Y133158D01*
X59106Y133121D01*
X59271Y133080D01*
X59434Y133036D01*
X59597Y132987D01*
X59758Y132935D01*
X59918Y132878D01*
X60076Y132818D01*
X60233Y132754D01*
X60389Y132686D01*
X60078Y128962D02*
X60150Y128931D01*
X60220Y128897D01*
X60289Y128859D01*
X60356Y128818D01*
X60421Y128774D01*
X60483Y128726D01*
X60543Y128676D01*
X60601Y128623D01*
X60656Y128567D01*
X60708Y128508D01*
X60757Y128447D01*
X60803Y128384D01*
X60846Y128319D01*
X60886Y128251D01*
X60923Y128182D01*
X60956Y128111D01*
X60985Y128038D01*
X61011Y127964D01*
X61034Y127889D01*
X61052Y127813D01*
X61067Y127736D01*
X61079Y127658D01*
X61086Y127580D01*
X61090Y127502D01*
X61089Y127424D01*
X61085Y127345D01*
X61078Y127267D01*
X61066Y127190D01*
X61051Y127113D01*
X61031Y127037D01*
X61009Y126962D01*
X60982Y126888D01*
X60952Y126816D01*
X60919Y126745D01*
X60882Y126676D01*
X60842Y126608D01*
X60798Y126543D01*
X60752Y126480D01*
X60702Y126419D01*
X60650Y126361D01*
X60595Y126305D01*
X60537Y126252D01*
X60476Y126202D01*
X60414Y126155D01*
X60349Y126112D01*
X60282Y126071D01*
X60213Y126033D01*
X60142Y126000D01*
X60070Y125969D01*
X59996Y125942D01*
X59922Y125919D01*
X59846Y125899D01*
X59769Y125883D01*
X59692Y125871D01*
X59614Y125863D01*
X59535Y125858D01*
X59457Y125857D01*
X59208Y125864D01*
X58960Y125876D01*
X58711Y125894D01*
X58463Y125918D01*
X58216Y125948D01*
X57970Y125984D01*
X57724Y126026D01*
X57480Y126073D01*
X57236Y126127D01*
X56994Y126185D01*
X56754Y126250D01*
X56515Y126320D01*
X56278Y126396D01*
X56043Y126478D01*
X66329Y125857D02*
X66329Y137033D01*
X66329Y133308D02*
X69434Y133308D01*
X69518Y133306D01*
X69601Y133301D01*
X69684Y133291D01*
X69767Y133278D01*
X69849Y133261D01*
X69930Y133241D01*
X70010Y133217D01*
X70089Y133189D01*
X70166Y133158D01*
X70242Y133124D01*
X70317Y133086D01*
X70390Y133044D01*
X70460Y133000D01*
X70529Y132952D01*
X70596Y132902D01*
X70660Y132848D01*
X70721Y132792D01*
X70781Y132732D01*
X70837Y132671D01*
X70891Y132607D01*
X70941Y132540D01*
X70989Y132471D01*
X71033Y132401D01*
X71075Y132328D01*
X71113Y132253D01*
X71147Y132177D01*
X71178Y132100D01*
X71206Y132021D01*
X71230Y131941D01*
X71250Y131860D01*
X71267Y131778D01*
X71280Y131695D01*
X71290Y131612D01*
X71295Y131529D01*
X71297Y131445D01*
X71296Y131445D02*
X71296Y125857D01*
X22473Y122428D02*
X18748Y111252D01*
X26198Y111252D02*
X22473Y122428D01*
X25267Y114046D02*
X19679Y114046D01*
X35551Y111252D02*
X35551Y122428D01*
X35551Y111252D02*
X32446Y111252D01*
X32362Y111254D01*
X32279Y111259D01*
X32196Y111269D01*
X32113Y111282D01*
X32031Y111299D01*
X31950Y111319D01*
X31870Y111343D01*
X31791Y111371D01*
X31714Y111402D01*
X31638Y111436D01*
X31563Y111474D01*
X31490Y111516D01*
X31420Y111560D01*
X31351Y111608D01*
X31284Y111658D01*
X31220Y111712D01*
X31159Y111768D01*
X31099Y111828D01*
X31043Y111889D01*
X30989Y111953D01*
X30939Y112020D01*
X30891Y112089D01*
X30847Y112159D01*
X30805Y112232D01*
X30767Y112307D01*
X30733Y112383D01*
X30702Y112460D01*
X30674Y112539D01*
X30650Y112619D01*
X30630Y112700D01*
X30613Y112782D01*
X30600Y112865D01*
X30590Y112948D01*
X30585Y113031D01*
X30583Y113115D01*
X30584Y113115D02*
X30584Y116840D01*
X30583Y116840D02*
X30585Y116924D01*
X30591Y117007D01*
X30600Y117090D01*
X30613Y117173D01*
X30630Y117255D01*
X30650Y117336D01*
X30674Y117416D01*
X30702Y117495D01*
X30733Y117572D01*
X30767Y117648D01*
X30805Y117723D01*
X30847Y117796D01*
X30891Y117866D01*
X30939Y117935D01*
X30989Y118002D01*
X31043Y118066D01*
X31099Y118127D01*
X31159Y118187D01*
X31220Y118243D01*
X31284Y118297D01*
X31351Y118347D01*
X31420Y118395D01*
X31490Y118439D01*
X31563Y118481D01*
X31638Y118519D01*
X31714Y118553D01*
X31791Y118584D01*
X31870Y118612D01*
X31950Y118636D01*
X32031Y118656D01*
X32113Y118673D01*
X32196Y118686D01*
X32279Y118696D01*
X32362Y118701D01*
X32446Y118703D01*
X35551Y118703D01*
X43044Y115598D02*
X45838Y115598D01*
X43044Y115598D02*
X42952Y115596D01*
X42860Y115590D01*
X42768Y115580D01*
X42677Y115567D01*
X42586Y115549D01*
X42496Y115528D01*
X42408Y115503D01*
X42320Y115474D01*
X42234Y115441D01*
X42149Y115405D01*
X42066Y115365D01*
X41984Y115322D01*
X41905Y115275D01*
X41827Y115225D01*
X41752Y115172D01*
X41679Y115116D01*
X41608Y115056D01*
X41540Y114994D01*
X41475Y114929D01*
X41413Y114861D01*
X41353Y114790D01*
X41297Y114717D01*
X41244Y114642D01*
X41194Y114564D01*
X41147Y114485D01*
X41104Y114403D01*
X41064Y114320D01*
X41028Y114235D01*
X40995Y114149D01*
X40966Y114061D01*
X40941Y113973D01*
X40920Y113883D01*
X40902Y113792D01*
X40889Y113701D01*
X40879Y113609D01*
X40873Y113517D01*
X40871Y113425D01*
X40873Y113333D01*
X40879Y113241D01*
X40889Y113149D01*
X40902Y113058D01*
X40920Y112967D01*
X40941Y112877D01*
X40966Y112789D01*
X40995Y112701D01*
X41028Y112615D01*
X41064Y112530D01*
X41104Y112447D01*
X41147Y112365D01*
X41194Y112286D01*
X41244Y112208D01*
X41297Y112133D01*
X41353Y112060D01*
X41413Y111989D01*
X41475Y111921D01*
X41540Y111856D01*
X41608Y111794D01*
X41679Y111734D01*
X41752Y111678D01*
X41827Y111625D01*
X41905Y111575D01*
X41984Y111528D01*
X42066Y111485D01*
X42149Y111445D01*
X42234Y111409D01*
X42320Y111376D01*
X42408Y111347D01*
X42496Y111322D01*
X42586Y111301D01*
X42677Y111283D01*
X42768Y111270D01*
X42860Y111260D01*
X42952Y111254D01*
X43044Y111252D01*
X45838Y111252D01*
X45838Y116840D01*
X45836Y116924D01*
X45831Y117007D01*
X45821Y117090D01*
X45808Y117173D01*
X45791Y117255D01*
X45771Y117336D01*
X45747Y117416D01*
X45719Y117495D01*
X45688Y117572D01*
X45654Y117648D01*
X45616Y117723D01*
X45574Y117796D01*
X45530Y117866D01*
X45482Y117935D01*
X45432Y118002D01*
X45378Y118066D01*
X45322Y118127D01*
X45262Y118187D01*
X45201Y118243D01*
X45137Y118297D01*
X45070Y118347D01*
X45001Y118395D01*
X44931Y118439D01*
X44858Y118481D01*
X44783Y118519D01*
X44707Y118553D01*
X44630Y118584D01*
X44551Y118612D01*
X44471Y118636D01*
X44390Y118656D01*
X44308Y118673D01*
X44225Y118686D01*
X44142Y118696D01*
X44059Y118701D01*
X43975Y118703D01*
X41492Y118703D01*
X51686Y118703D02*
X51686Y107527D01*
X51686Y118703D02*
X54790Y118703D01*
X54874Y118701D01*
X54957Y118696D01*
X55040Y118686D01*
X55123Y118673D01*
X55205Y118656D01*
X55286Y118636D01*
X55366Y118612D01*
X55445Y118584D01*
X55522Y118553D01*
X55598Y118519D01*
X55673Y118481D01*
X55746Y118439D01*
X55816Y118395D01*
X55885Y118347D01*
X55952Y118297D01*
X56016Y118243D01*
X56077Y118187D01*
X56137Y118127D01*
X56193Y118066D01*
X56247Y118002D01*
X56297Y117935D01*
X56345Y117866D01*
X56389Y117796D01*
X56431Y117723D01*
X56469Y117648D01*
X56503Y117572D01*
X56534Y117495D01*
X56562Y117416D01*
X56586Y117336D01*
X56606Y117255D01*
X56623Y117173D01*
X56636Y117090D01*
X56646Y117007D01*
X56651Y116924D01*
X56653Y116840D01*
X56653Y113115D01*
X56651Y113029D01*
X56645Y112943D01*
X56635Y112858D01*
X56621Y112773D01*
X56604Y112688D01*
X56582Y112605D01*
X56556Y112523D01*
X56527Y112442D01*
X56494Y112363D01*
X56458Y112285D01*
X56418Y112208D01*
X56374Y112134D01*
X56327Y112062D01*
X56277Y111992D01*
X56223Y111925D01*
X56167Y111860D01*
X56107Y111798D01*
X56045Y111738D01*
X55980Y111682D01*
X55913Y111628D01*
X55843Y111578D01*
X55771Y111531D01*
X55697Y111487D01*
X55620Y111447D01*
X55543Y111411D01*
X55463Y111378D01*
X55382Y111349D01*
X55300Y111323D01*
X55217Y111301D01*
X55132Y111284D01*
X55047Y111270D01*
X54962Y111260D01*
X54876Y111254D01*
X54790Y111252D01*
X51686Y111252D01*
X60500Y118703D02*
X64225Y118703D01*
X61741Y122428D02*
X61741Y113115D01*
X61743Y113031D01*
X61748Y112948D01*
X61758Y112865D01*
X61771Y112782D01*
X61788Y112700D01*
X61808Y112619D01*
X61832Y112539D01*
X61860Y112460D01*
X61891Y112383D01*
X61925Y112307D01*
X61963Y112232D01*
X62005Y112159D01*
X62049Y112089D01*
X62097Y112020D01*
X62147Y111953D01*
X62201Y111889D01*
X62257Y111828D01*
X62317Y111768D01*
X62378Y111712D01*
X62442Y111658D01*
X62509Y111608D01*
X62578Y111560D01*
X62648Y111516D01*
X62721Y111474D01*
X62796Y111436D01*
X62872Y111402D01*
X62949Y111371D01*
X63028Y111343D01*
X63108Y111319D01*
X63189Y111299D01*
X63271Y111282D01*
X63354Y111269D01*
X63437Y111259D01*
X63520Y111254D01*
X63604Y111252D01*
X64225Y111252D01*
X70620Y111252D02*
X73724Y111252D01*
X70620Y111252D02*
X70536Y111254D01*
X70453Y111259D01*
X70370Y111269D01*
X70287Y111282D01*
X70205Y111299D01*
X70124Y111319D01*
X70044Y111343D01*
X69965Y111371D01*
X69888Y111402D01*
X69812Y111436D01*
X69737Y111474D01*
X69664Y111516D01*
X69594Y111560D01*
X69525Y111608D01*
X69458Y111658D01*
X69394Y111712D01*
X69333Y111768D01*
X69273Y111828D01*
X69217Y111889D01*
X69163Y111953D01*
X69113Y112020D01*
X69065Y112089D01*
X69021Y112159D01*
X68979Y112232D01*
X68941Y112307D01*
X68907Y112383D01*
X68876Y112460D01*
X68848Y112539D01*
X68824Y112619D01*
X68804Y112700D01*
X68787Y112782D01*
X68774Y112865D01*
X68764Y112948D01*
X68759Y113031D01*
X68757Y113115D01*
X68757Y116219D01*
X68759Y116318D01*
X68765Y116416D01*
X68775Y116515D01*
X68788Y116612D01*
X68806Y116710D01*
X68827Y116806D01*
X68853Y116902D01*
X68882Y116996D01*
X68914Y117089D01*
X68951Y117181D01*
X68991Y117271D01*
X69035Y117360D01*
X69082Y117447D01*
X69132Y117532D01*
X69186Y117614D01*
X69243Y117695D01*
X69303Y117773D01*
X69367Y117849D01*
X69433Y117922D01*
X69502Y117993D01*
X69574Y118061D01*
X69649Y118125D01*
X69726Y118187D01*
X69805Y118246D01*
X69887Y118301D01*
X69971Y118354D01*
X70056Y118402D01*
X70144Y118448D01*
X70234Y118490D01*
X70325Y118528D01*
X70417Y118562D01*
X70511Y118593D01*
X70606Y118620D01*
X70702Y118644D01*
X70799Y118663D01*
X70896Y118679D01*
X70994Y118691D01*
X71093Y118699D01*
X71192Y118703D01*
X71290Y118703D01*
X71389Y118699D01*
X71488Y118691D01*
X71586Y118679D01*
X71683Y118663D01*
X71780Y118644D01*
X71876Y118620D01*
X71971Y118593D01*
X72065Y118562D01*
X72157Y118528D01*
X72248Y118490D01*
X72338Y118448D01*
X72426Y118402D01*
X72511Y118354D01*
X72595Y118301D01*
X72677Y118246D01*
X72756Y118187D01*
X72833Y118125D01*
X72908Y118061D01*
X72980Y117993D01*
X73049Y117922D01*
X73115Y117849D01*
X73179Y117773D01*
X73239Y117695D01*
X73296Y117614D01*
X73350Y117532D01*
X73400Y117447D01*
X73447Y117360D01*
X73491Y117271D01*
X73531Y117181D01*
X73568Y117089D01*
X73600Y116996D01*
X73629Y116902D01*
X73655Y116806D01*
X73676Y116710D01*
X73694Y116612D01*
X73707Y116515D01*
X73717Y116416D01*
X73723Y116318D01*
X73725Y116219D01*
X73724Y116219D02*
X73724Y114977D01*
X68757Y114977D01*
X79127Y111252D02*
X79127Y118703D01*
X82852Y118703D01*
X82852Y117461D01*
D11*
X406400Y106680D02*
X405967Y106675D01*
X405534Y106659D01*
X405102Y106633D01*
X404671Y106596D01*
X404240Y106548D01*
X403811Y106491D01*
X403384Y106422D01*
X402958Y106344D01*
X402534Y106255D01*
X402113Y106155D01*
X401694Y106046D01*
X401278Y105926D01*
X400865Y105796D01*
X400455Y105657D01*
X400048Y105507D01*
X399646Y105347D01*
X399247Y105178D01*
X398853Y104999D01*
X398463Y104810D01*
X398078Y104612D01*
X397698Y104405D01*
X397323Y104189D01*
X396954Y103963D01*
X396590Y103728D01*
X396231Y103485D01*
X395879Y103233D01*
X395533Y102973D01*
X395194Y102704D01*
X394861Y102427D01*
X394535Y102142D01*
X394216Y101849D01*
X393904Y101549D01*
X393600Y101241D01*
X393303Y100925D01*
X393014Y100603D01*
X392733Y100273D01*
X392461Y99937D01*
X392196Y99595D01*
X391940Y99245D01*
X391692Y98890D01*
X391453Y98529D01*
X391223Y98162D01*
X391002Y97790D01*
X390790Y97412D01*
X390587Y97030D01*
X390394Y96642D01*
X390210Y96250D01*
X390036Y95854D01*
X389872Y95453D01*
X389717Y95049D01*
X389572Y94641D01*
X389437Y94229D01*
X389313Y93815D01*
X389198Y93397D01*
X389094Y92977D01*
X389000Y92554D01*
X388916Y92130D01*
X388842Y91703D01*
X388779Y91274D01*
X388727Y90845D01*
X388685Y90414D01*
X388653Y89982D01*
X388632Y89549D01*
X388621Y89116D01*
X388621Y88684D01*
X388632Y88251D01*
X388653Y87818D01*
X388685Y87386D01*
X388727Y86955D01*
X388779Y86526D01*
X388842Y86097D01*
X388916Y85670D01*
X389000Y85246D01*
X389094Y84823D01*
X389198Y84403D01*
X389313Y83985D01*
X389437Y83571D01*
X389572Y83159D01*
X389717Y82751D01*
X389872Y82347D01*
X390036Y81946D01*
X390210Y81550D01*
X390394Y81158D01*
X390587Y80770D01*
X390790Y80388D01*
X391002Y80010D01*
X391223Y79638D01*
X391453Y79271D01*
X391692Y78910D01*
X391940Y78555D01*
X392196Y78205D01*
X392461Y77863D01*
X392733Y77527D01*
X393014Y77197D01*
X393303Y76875D01*
X393600Y76559D01*
X393904Y76251D01*
X394216Y75951D01*
X394535Y75658D01*
X394861Y75373D01*
X395194Y75096D01*
X395533Y74827D01*
X395879Y74567D01*
X396231Y74315D01*
X396590Y74072D01*
X396954Y73837D01*
X397323Y73611D01*
X397698Y73395D01*
X398078Y73188D01*
X398463Y72990D01*
X398853Y72801D01*
X399247Y72622D01*
X399646Y72453D01*
X400048Y72293D01*
X400455Y72143D01*
X400865Y72004D01*
X401278Y71874D01*
X401694Y71754D01*
X402113Y71645D01*
X402534Y71545D01*
X402958Y71456D01*
X403384Y71378D01*
X403811Y71309D01*
X404240Y71252D01*
X404671Y71204D01*
X405102Y71167D01*
X405534Y71141D01*
X405967Y71125D01*
X406400Y71120D01*
M02*
