G04 EAGLE Gerber RS-274X export*
G75*
%MOMM*%
%FSLAX34Y34*%
%LPD*%
%INSilkscreen Bottom*%
%IPPOS*%
%AMOC8*
5,1,8,0,0,1.08239X$1,22.5*%
G01*
%ADD10C,0.101600*%


D10*
X212090Y68510D02*
X212320Y68513D01*
X212550Y68521D01*
X212779Y68535D01*
X213008Y68554D01*
X213237Y68579D01*
X213464Y68609D01*
X213692Y68644D01*
X213918Y68685D01*
X214143Y68731D01*
X214367Y68783D01*
X214589Y68840D01*
X214811Y68902D01*
X215030Y68970D01*
X215248Y69043D01*
X215465Y69121D01*
X215679Y69204D01*
X215891Y69292D01*
X216101Y69385D01*
X216309Y69484D01*
X216309Y69483D02*
X216399Y69516D01*
X216488Y69552D01*
X216576Y69592D01*
X216661Y69636D01*
X216745Y69683D01*
X216827Y69733D01*
X216907Y69787D01*
X216984Y69843D01*
X217060Y69903D01*
X217133Y69966D01*
X217203Y70031D01*
X217271Y70100D01*
X217335Y70171D01*
X217397Y70244D01*
X217456Y70320D01*
X217512Y70398D01*
X217565Y70479D01*
X217614Y70561D01*
X217660Y70645D01*
X217703Y70732D01*
X217742Y70819D01*
X217778Y70909D01*
X217810Y70999D01*
X217838Y71091D01*
X217863Y71184D01*
X217884Y71278D01*
X217901Y71372D01*
X217915Y71467D01*
X217924Y71563D01*
X217930Y71659D01*
X217932Y71755D01*
X217930Y71851D01*
X217924Y71947D01*
X217915Y72043D01*
X217901Y72138D01*
X217884Y72232D01*
X217863Y72326D01*
X217838Y72419D01*
X217810Y72511D01*
X217778Y72601D01*
X217742Y72691D01*
X217703Y72778D01*
X217660Y72865D01*
X217614Y72949D01*
X217565Y73031D01*
X217512Y73112D01*
X217456Y73190D01*
X217397Y73266D01*
X217335Y73339D01*
X217271Y73410D01*
X217203Y73479D01*
X217133Y73544D01*
X217060Y73607D01*
X216984Y73667D01*
X216907Y73723D01*
X216827Y73777D01*
X216745Y73827D01*
X216661Y73874D01*
X216576Y73918D01*
X216488Y73958D01*
X216399Y73994D01*
X216309Y74027D01*
X216102Y74126D01*
X215892Y74219D01*
X215679Y74307D01*
X215465Y74390D01*
X215249Y74468D01*
X215031Y74541D01*
X214811Y74609D01*
X214590Y74671D01*
X214367Y74728D01*
X214143Y74780D01*
X213918Y74826D01*
X213692Y74867D01*
X213465Y74902D01*
X213237Y74932D01*
X213008Y74957D01*
X212779Y74976D01*
X212550Y74990D01*
X212320Y74998D01*
X212090Y75001D01*
X212090Y68509D02*
X211860Y68512D01*
X211630Y68520D01*
X211401Y68534D01*
X211172Y68553D01*
X210943Y68578D01*
X210715Y68608D01*
X210488Y68643D01*
X210262Y68684D01*
X210037Y68730D01*
X209813Y68782D01*
X209590Y68839D01*
X209369Y68901D01*
X209149Y68969D01*
X208931Y69042D01*
X208715Y69120D01*
X208501Y69203D01*
X208289Y69291D01*
X208078Y69384D01*
X207871Y69483D01*
X207781Y69516D01*
X207692Y69552D01*
X207604Y69593D01*
X207519Y69636D01*
X207435Y69683D01*
X207353Y69733D01*
X207273Y69787D01*
X207196Y69843D01*
X207120Y69903D01*
X207047Y69966D01*
X206977Y70031D01*
X206909Y70100D01*
X206845Y70171D01*
X206783Y70244D01*
X206724Y70320D01*
X206668Y70398D01*
X206615Y70479D01*
X206566Y70561D01*
X206520Y70645D01*
X206477Y70732D01*
X206438Y70819D01*
X206402Y70909D01*
X206370Y70999D01*
X206342Y71091D01*
X206317Y71184D01*
X206296Y71278D01*
X206279Y71372D01*
X206265Y71467D01*
X206256Y71563D01*
X206250Y71659D01*
X206248Y71755D01*
X207871Y74027D02*
X208078Y74126D01*
X208289Y74219D01*
X208501Y74307D01*
X208715Y74390D01*
X208931Y74468D01*
X209149Y74541D01*
X209369Y74609D01*
X209590Y74671D01*
X209813Y74728D01*
X210037Y74780D01*
X210262Y74826D01*
X210488Y74867D01*
X210715Y74902D01*
X210943Y74932D01*
X211172Y74957D01*
X211401Y74976D01*
X211630Y74990D01*
X211860Y74998D01*
X212090Y75001D01*
X207871Y74027D02*
X207781Y73994D01*
X207692Y73958D01*
X207604Y73918D01*
X207519Y73874D01*
X207435Y73827D01*
X207353Y73777D01*
X207273Y73723D01*
X207196Y73667D01*
X207120Y73607D01*
X207047Y73544D01*
X206977Y73479D01*
X206909Y73410D01*
X206845Y73339D01*
X206783Y73266D01*
X206724Y73190D01*
X206668Y73112D01*
X206615Y73031D01*
X206566Y72949D01*
X206520Y72865D01*
X206477Y72778D01*
X206438Y72691D01*
X206402Y72601D01*
X206370Y72511D01*
X206342Y72419D01*
X206317Y72326D01*
X206296Y72232D01*
X206279Y72138D01*
X206265Y72043D01*
X206256Y71947D01*
X206250Y71851D01*
X206248Y71755D01*
X208844Y69159D02*
X215336Y74352D01*
X209494Y79939D02*
X209607Y79941D01*
X209720Y79947D01*
X209833Y79957D01*
X209946Y79971D01*
X210058Y79988D01*
X210169Y80010D01*
X210279Y80035D01*
X210389Y80065D01*
X210497Y80098D01*
X210604Y80135D01*
X210710Y80175D01*
X210814Y80220D01*
X210917Y80268D01*
X211018Y80319D01*
X211117Y80374D01*
X211214Y80432D01*
X211309Y80494D01*
X211402Y80559D01*
X211492Y80627D01*
X211580Y80698D01*
X211666Y80773D01*
X211749Y80850D01*
X211829Y80930D01*
X211906Y81013D01*
X211981Y81099D01*
X212052Y81187D01*
X212120Y81277D01*
X212185Y81370D01*
X212247Y81465D01*
X212305Y81562D01*
X212360Y81661D01*
X212411Y81762D01*
X212459Y81865D01*
X212504Y81969D01*
X212544Y82075D01*
X212581Y82182D01*
X212614Y82290D01*
X212644Y82400D01*
X212669Y82510D01*
X212691Y82621D01*
X212708Y82733D01*
X212722Y82846D01*
X212732Y82959D01*
X212738Y83072D01*
X212740Y83185D01*
X212738Y83298D01*
X212732Y83411D01*
X212722Y83524D01*
X212708Y83637D01*
X212691Y83749D01*
X212669Y83860D01*
X212644Y83970D01*
X212614Y84080D01*
X212581Y84188D01*
X212544Y84295D01*
X212504Y84401D01*
X212459Y84505D01*
X212411Y84608D01*
X212360Y84709D01*
X212305Y84808D01*
X212247Y84905D01*
X212185Y85000D01*
X212120Y85093D01*
X212052Y85183D01*
X211981Y85271D01*
X211906Y85357D01*
X211829Y85440D01*
X211749Y85520D01*
X211666Y85597D01*
X211580Y85672D01*
X211492Y85743D01*
X211402Y85811D01*
X211309Y85876D01*
X211214Y85938D01*
X211117Y85996D01*
X211018Y86051D01*
X210917Y86102D01*
X210814Y86150D01*
X210710Y86195D01*
X210604Y86235D01*
X210497Y86272D01*
X210389Y86305D01*
X210279Y86335D01*
X210169Y86360D01*
X210058Y86382D01*
X209946Y86399D01*
X209833Y86413D01*
X209720Y86423D01*
X209607Y86429D01*
X209494Y86431D01*
X209381Y86429D01*
X209268Y86423D01*
X209155Y86413D01*
X209042Y86399D01*
X208930Y86382D01*
X208819Y86360D01*
X208709Y86335D01*
X208599Y86305D01*
X208491Y86272D01*
X208384Y86235D01*
X208278Y86195D01*
X208174Y86150D01*
X208071Y86102D01*
X207970Y86051D01*
X207871Y85996D01*
X207774Y85938D01*
X207679Y85876D01*
X207586Y85811D01*
X207496Y85743D01*
X207408Y85672D01*
X207322Y85597D01*
X207239Y85520D01*
X207159Y85440D01*
X207082Y85357D01*
X207007Y85271D01*
X206936Y85183D01*
X206868Y85093D01*
X206803Y85000D01*
X206741Y84905D01*
X206683Y84808D01*
X206628Y84709D01*
X206577Y84608D01*
X206529Y84505D01*
X206484Y84401D01*
X206444Y84295D01*
X206407Y84188D01*
X206374Y84080D01*
X206344Y83970D01*
X206319Y83860D01*
X206297Y83749D01*
X206280Y83637D01*
X206266Y83524D01*
X206256Y83411D01*
X206250Y83298D01*
X206248Y83185D01*
X206250Y83072D01*
X206256Y82959D01*
X206266Y82846D01*
X206280Y82733D01*
X206297Y82621D01*
X206319Y82510D01*
X206344Y82400D01*
X206374Y82290D01*
X206407Y82182D01*
X206444Y82075D01*
X206484Y81969D01*
X206529Y81865D01*
X206577Y81762D01*
X206628Y81661D01*
X206683Y81562D01*
X206741Y81465D01*
X206803Y81370D01*
X206868Y81277D01*
X206936Y81187D01*
X207007Y81099D01*
X207082Y81013D01*
X207159Y80930D01*
X207239Y80850D01*
X207322Y80773D01*
X207408Y80698D01*
X207496Y80627D01*
X207586Y80559D01*
X207679Y80494D01*
X207774Y80432D01*
X207871Y80374D01*
X207970Y80319D01*
X208071Y80268D01*
X208174Y80220D01*
X208278Y80175D01*
X208384Y80135D01*
X208491Y80098D01*
X208599Y80065D01*
X208709Y80035D01*
X208819Y80010D01*
X208930Y79988D01*
X209042Y79971D01*
X209155Y79957D01*
X209268Y79947D01*
X209381Y79941D01*
X209494Y79939D01*
X215336Y80589D02*
X215437Y80591D01*
X215537Y80597D01*
X215637Y80607D01*
X215737Y80620D01*
X215836Y80638D01*
X215935Y80659D01*
X216032Y80684D01*
X216129Y80713D01*
X216224Y80746D01*
X216318Y80782D01*
X216410Y80822D01*
X216501Y80865D01*
X216590Y80912D01*
X216677Y80962D01*
X216763Y81016D01*
X216846Y81073D01*
X216926Y81133D01*
X217005Y81196D01*
X217081Y81263D01*
X217154Y81332D01*
X217224Y81404D01*
X217292Y81478D01*
X217357Y81555D01*
X217418Y81635D01*
X217477Y81717D01*
X217532Y81801D01*
X217584Y81887D01*
X217633Y81975D01*
X217678Y82065D01*
X217720Y82157D01*
X217758Y82250D01*
X217792Y82345D01*
X217823Y82440D01*
X217850Y82537D01*
X217873Y82635D01*
X217893Y82734D01*
X217908Y82834D01*
X217920Y82934D01*
X217928Y83034D01*
X217932Y83135D01*
X217932Y83235D01*
X217928Y83336D01*
X217920Y83436D01*
X217908Y83536D01*
X217893Y83636D01*
X217873Y83735D01*
X217850Y83833D01*
X217823Y83930D01*
X217792Y84025D01*
X217758Y84120D01*
X217720Y84213D01*
X217678Y84305D01*
X217633Y84395D01*
X217584Y84483D01*
X217532Y84569D01*
X217477Y84653D01*
X217418Y84735D01*
X217357Y84815D01*
X217292Y84892D01*
X217224Y84966D01*
X217154Y85038D01*
X217081Y85107D01*
X217005Y85174D01*
X216926Y85237D01*
X216846Y85297D01*
X216763Y85354D01*
X216677Y85408D01*
X216590Y85458D01*
X216501Y85505D01*
X216410Y85548D01*
X216318Y85588D01*
X216224Y85624D01*
X216129Y85657D01*
X216032Y85686D01*
X215935Y85711D01*
X215836Y85732D01*
X215737Y85750D01*
X215637Y85763D01*
X215537Y85773D01*
X215437Y85779D01*
X215336Y85781D01*
X215235Y85779D01*
X215135Y85773D01*
X215035Y85763D01*
X214935Y85750D01*
X214836Y85732D01*
X214737Y85711D01*
X214640Y85686D01*
X214543Y85657D01*
X214448Y85624D01*
X214354Y85588D01*
X214262Y85548D01*
X214171Y85505D01*
X214082Y85458D01*
X213995Y85408D01*
X213909Y85354D01*
X213826Y85297D01*
X213746Y85237D01*
X213667Y85174D01*
X213591Y85107D01*
X213518Y85038D01*
X213448Y84966D01*
X213380Y84892D01*
X213315Y84815D01*
X213254Y84735D01*
X213195Y84653D01*
X213140Y84569D01*
X213088Y84483D01*
X213039Y84395D01*
X212994Y84305D01*
X212952Y84213D01*
X212914Y84120D01*
X212880Y84025D01*
X212849Y83930D01*
X212822Y83833D01*
X212799Y83735D01*
X212779Y83636D01*
X212764Y83536D01*
X212752Y83436D01*
X212744Y83336D01*
X212740Y83235D01*
X212740Y83135D01*
X212744Y83034D01*
X212752Y82934D01*
X212764Y82834D01*
X212779Y82734D01*
X212799Y82635D01*
X212822Y82537D01*
X212849Y82440D01*
X212880Y82345D01*
X212914Y82250D01*
X212952Y82157D01*
X212994Y82065D01*
X213039Y81975D01*
X213088Y81887D01*
X213140Y81801D01*
X213195Y81717D01*
X213254Y81635D01*
X213315Y81555D01*
X213380Y81478D01*
X213448Y81404D01*
X213518Y81332D01*
X213591Y81263D01*
X213667Y81196D01*
X213746Y81133D01*
X213826Y81073D01*
X213909Y81016D01*
X213995Y80962D01*
X214082Y80912D01*
X214171Y80865D01*
X214262Y80822D01*
X214354Y80782D01*
X214448Y80746D01*
X214543Y80713D01*
X214640Y80684D01*
X214737Y80659D01*
X214836Y80638D01*
X214935Y80620D01*
X215035Y80607D01*
X215135Y80597D01*
X215235Y80591D01*
X215336Y80589D01*
X212090Y91370D02*
X212320Y91373D01*
X212550Y91381D01*
X212779Y91395D01*
X213008Y91414D01*
X213237Y91439D01*
X213464Y91469D01*
X213692Y91504D01*
X213918Y91545D01*
X214143Y91591D01*
X214367Y91643D01*
X214589Y91700D01*
X214811Y91762D01*
X215030Y91830D01*
X215248Y91903D01*
X215465Y91981D01*
X215679Y92064D01*
X215891Y92152D01*
X216101Y92245D01*
X216309Y92344D01*
X216309Y92343D02*
X216399Y92376D01*
X216488Y92412D01*
X216576Y92452D01*
X216661Y92496D01*
X216745Y92543D01*
X216827Y92593D01*
X216907Y92647D01*
X216984Y92703D01*
X217060Y92763D01*
X217133Y92826D01*
X217203Y92891D01*
X217271Y92960D01*
X217335Y93031D01*
X217397Y93104D01*
X217456Y93180D01*
X217512Y93258D01*
X217565Y93339D01*
X217614Y93421D01*
X217660Y93505D01*
X217703Y93592D01*
X217742Y93679D01*
X217778Y93769D01*
X217810Y93859D01*
X217838Y93951D01*
X217863Y94044D01*
X217884Y94138D01*
X217901Y94232D01*
X217915Y94327D01*
X217924Y94423D01*
X217930Y94519D01*
X217932Y94615D01*
X217930Y94711D01*
X217924Y94807D01*
X217915Y94903D01*
X217901Y94998D01*
X217884Y95092D01*
X217863Y95186D01*
X217838Y95279D01*
X217810Y95371D01*
X217778Y95461D01*
X217742Y95551D01*
X217703Y95638D01*
X217660Y95725D01*
X217614Y95809D01*
X217565Y95891D01*
X217512Y95972D01*
X217456Y96050D01*
X217397Y96126D01*
X217335Y96199D01*
X217271Y96270D01*
X217203Y96339D01*
X217133Y96404D01*
X217060Y96467D01*
X216984Y96527D01*
X216907Y96583D01*
X216827Y96637D01*
X216745Y96687D01*
X216661Y96734D01*
X216576Y96778D01*
X216488Y96818D01*
X216399Y96854D01*
X216309Y96887D01*
X216102Y96986D01*
X215892Y97079D01*
X215679Y97167D01*
X215465Y97250D01*
X215249Y97328D01*
X215031Y97401D01*
X214811Y97469D01*
X214590Y97531D01*
X214367Y97588D01*
X214143Y97640D01*
X213918Y97686D01*
X213692Y97727D01*
X213465Y97762D01*
X213237Y97792D01*
X213008Y97817D01*
X212779Y97836D01*
X212550Y97850D01*
X212320Y97858D01*
X212090Y97861D01*
X212090Y91369D02*
X211860Y91372D01*
X211630Y91380D01*
X211401Y91394D01*
X211172Y91413D01*
X210943Y91438D01*
X210715Y91468D01*
X210488Y91503D01*
X210262Y91544D01*
X210037Y91590D01*
X209813Y91642D01*
X209590Y91699D01*
X209369Y91761D01*
X209149Y91829D01*
X208931Y91902D01*
X208715Y91980D01*
X208501Y92063D01*
X208289Y92151D01*
X208078Y92244D01*
X207871Y92343D01*
X207781Y92376D01*
X207692Y92412D01*
X207604Y92453D01*
X207519Y92496D01*
X207435Y92543D01*
X207353Y92593D01*
X207273Y92647D01*
X207196Y92703D01*
X207120Y92763D01*
X207047Y92826D01*
X206977Y92891D01*
X206909Y92960D01*
X206845Y93031D01*
X206783Y93104D01*
X206724Y93180D01*
X206668Y93258D01*
X206615Y93339D01*
X206566Y93421D01*
X206520Y93505D01*
X206477Y93592D01*
X206438Y93679D01*
X206402Y93769D01*
X206370Y93859D01*
X206342Y93951D01*
X206317Y94044D01*
X206296Y94138D01*
X206279Y94232D01*
X206265Y94327D01*
X206256Y94423D01*
X206250Y94519D01*
X206248Y94615D01*
X207871Y96887D02*
X208078Y96986D01*
X208289Y97079D01*
X208501Y97167D01*
X208715Y97250D01*
X208931Y97328D01*
X209149Y97401D01*
X209369Y97469D01*
X209590Y97531D01*
X209813Y97588D01*
X210037Y97640D01*
X210262Y97686D01*
X210488Y97727D01*
X210715Y97762D01*
X210943Y97792D01*
X211172Y97817D01*
X211401Y97836D01*
X211630Y97850D01*
X211860Y97858D01*
X212090Y97861D01*
X207871Y96887D02*
X207781Y96854D01*
X207692Y96818D01*
X207604Y96778D01*
X207519Y96734D01*
X207435Y96687D01*
X207353Y96637D01*
X207273Y96583D01*
X207196Y96527D01*
X207120Y96467D01*
X207047Y96404D01*
X206977Y96339D01*
X206909Y96270D01*
X206845Y96199D01*
X206783Y96126D01*
X206724Y96050D01*
X206668Y95972D01*
X206615Y95891D01*
X206566Y95809D01*
X206520Y95725D01*
X206477Y95638D01*
X206438Y95551D01*
X206402Y95461D01*
X206370Y95371D01*
X206342Y95279D01*
X206317Y95186D01*
X206296Y95092D01*
X206279Y94998D01*
X206265Y94903D01*
X206256Y94807D01*
X206250Y94711D01*
X206248Y94615D01*
X208844Y92019D02*
X215336Y97211D01*
X206248Y102799D02*
X206248Y106694D01*
X206250Y106793D01*
X206256Y106893D01*
X206265Y106992D01*
X206278Y107090D01*
X206295Y107188D01*
X206316Y107286D01*
X206341Y107382D01*
X206369Y107477D01*
X206401Y107571D01*
X206436Y107664D01*
X206475Y107756D01*
X206518Y107846D01*
X206563Y107934D01*
X206613Y108021D01*
X206665Y108105D01*
X206721Y108188D01*
X206779Y108268D01*
X206841Y108346D01*
X206906Y108421D01*
X206974Y108494D01*
X207044Y108564D01*
X207117Y108632D01*
X207192Y108697D01*
X207270Y108759D01*
X207350Y108817D01*
X207433Y108873D01*
X207517Y108925D01*
X207604Y108975D01*
X207692Y109020D01*
X207782Y109063D01*
X207874Y109102D01*
X207967Y109137D01*
X208061Y109169D01*
X208156Y109197D01*
X208252Y109222D01*
X208350Y109243D01*
X208448Y109260D01*
X208546Y109273D01*
X208645Y109282D01*
X208745Y109288D01*
X208844Y109290D01*
X208844Y109291D02*
X210143Y109291D01*
X210143Y109290D02*
X210242Y109288D01*
X210342Y109282D01*
X210441Y109273D01*
X210539Y109260D01*
X210637Y109243D01*
X210735Y109222D01*
X210831Y109197D01*
X210926Y109169D01*
X211020Y109137D01*
X211113Y109102D01*
X211205Y109063D01*
X211295Y109020D01*
X211383Y108975D01*
X211470Y108925D01*
X211554Y108873D01*
X211637Y108817D01*
X211717Y108759D01*
X211795Y108697D01*
X211870Y108632D01*
X211943Y108564D01*
X212013Y108494D01*
X212081Y108421D01*
X212146Y108346D01*
X212208Y108268D01*
X212266Y108188D01*
X212322Y108105D01*
X212374Y108021D01*
X212424Y107934D01*
X212469Y107846D01*
X212512Y107756D01*
X212551Y107664D01*
X212586Y107571D01*
X212618Y107477D01*
X212646Y107382D01*
X212671Y107286D01*
X212692Y107188D01*
X212709Y107090D01*
X212722Y106992D01*
X212731Y106893D01*
X212737Y106793D01*
X212739Y106694D01*
X212739Y102799D01*
X217932Y102799D01*
X217932Y109291D01*
X200152Y71755D02*
X197556Y68510D01*
X200152Y71755D02*
X188468Y71755D01*
X188468Y68510D02*
X188468Y75001D01*
X197231Y86431D02*
X197338Y86429D01*
X197444Y86423D01*
X197550Y86413D01*
X197656Y86400D01*
X197762Y86382D01*
X197866Y86361D01*
X197970Y86336D01*
X198073Y86307D01*
X198174Y86275D01*
X198274Y86238D01*
X198373Y86198D01*
X198471Y86155D01*
X198567Y86108D01*
X198661Y86057D01*
X198753Y86003D01*
X198843Y85946D01*
X198931Y85886D01*
X199016Y85822D01*
X199099Y85755D01*
X199180Y85685D01*
X199258Y85613D01*
X199334Y85537D01*
X199406Y85459D01*
X199476Y85378D01*
X199543Y85295D01*
X199607Y85210D01*
X199667Y85122D01*
X199724Y85032D01*
X199778Y84940D01*
X199829Y84846D01*
X199876Y84750D01*
X199919Y84652D01*
X199959Y84553D01*
X199996Y84453D01*
X200028Y84352D01*
X200057Y84249D01*
X200082Y84145D01*
X200103Y84041D01*
X200121Y83935D01*
X200134Y83829D01*
X200144Y83723D01*
X200150Y83617D01*
X200152Y83510D01*
X200150Y83389D01*
X200144Y83268D01*
X200134Y83148D01*
X200121Y83027D01*
X200103Y82908D01*
X200082Y82788D01*
X200057Y82670D01*
X200028Y82553D01*
X199995Y82436D01*
X199959Y82321D01*
X199918Y82207D01*
X199875Y82094D01*
X199827Y81982D01*
X199776Y81873D01*
X199721Y81765D01*
X199663Y81658D01*
X199602Y81554D01*
X199537Y81452D01*
X199469Y81352D01*
X199398Y81254D01*
X199324Y81158D01*
X199247Y81065D01*
X199166Y80975D01*
X199083Y80887D01*
X198997Y80802D01*
X198908Y80719D01*
X198817Y80640D01*
X198723Y80563D01*
X198627Y80490D01*
X198529Y80420D01*
X198428Y80353D01*
X198325Y80289D01*
X198220Y80229D01*
X198113Y80172D01*
X198005Y80118D01*
X197895Y80068D01*
X197783Y80022D01*
X197670Y79979D01*
X197555Y79940D01*
X194959Y85457D02*
X195036Y85536D01*
X195117Y85612D01*
X195200Y85685D01*
X195285Y85755D01*
X195373Y85822D01*
X195463Y85886D01*
X195555Y85946D01*
X195650Y86003D01*
X195746Y86057D01*
X195844Y86108D01*
X195944Y86155D01*
X196046Y86199D01*
X196149Y86239D01*
X196253Y86275D01*
X196359Y86307D01*
X196465Y86336D01*
X196573Y86361D01*
X196681Y86383D01*
X196791Y86400D01*
X196900Y86414D01*
X197010Y86423D01*
X197121Y86429D01*
X197231Y86431D01*
X194959Y85457D02*
X188468Y79939D01*
X188468Y86431D01*
X194310Y91370D02*
X194540Y91373D01*
X194770Y91381D01*
X194999Y91395D01*
X195228Y91414D01*
X195457Y91439D01*
X195684Y91469D01*
X195912Y91504D01*
X196138Y91545D01*
X196363Y91591D01*
X196587Y91643D01*
X196809Y91700D01*
X197031Y91762D01*
X197250Y91830D01*
X197468Y91903D01*
X197685Y91981D01*
X197899Y92064D01*
X198111Y92152D01*
X198321Y92245D01*
X198529Y92344D01*
X198529Y92343D02*
X198619Y92376D01*
X198708Y92412D01*
X198796Y92452D01*
X198881Y92496D01*
X198965Y92543D01*
X199047Y92593D01*
X199127Y92647D01*
X199204Y92703D01*
X199280Y92763D01*
X199353Y92826D01*
X199423Y92891D01*
X199491Y92960D01*
X199555Y93031D01*
X199617Y93104D01*
X199676Y93180D01*
X199732Y93258D01*
X199785Y93339D01*
X199834Y93421D01*
X199880Y93505D01*
X199923Y93592D01*
X199962Y93679D01*
X199998Y93769D01*
X200030Y93859D01*
X200058Y93951D01*
X200083Y94044D01*
X200104Y94138D01*
X200121Y94232D01*
X200135Y94327D01*
X200144Y94423D01*
X200150Y94519D01*
X200152Y94615D01*
X200150Y94711D01*
X200144Y94807D01*
X200135Y94903D01*
X200121Y94998D01*
X200104Y95092D01*
X200083Y95186D01*
X200058Y95279D01*
X200030Y95371D01*
X199998Y95461D01*
X199962Y95551D01*
X199923Y95638D01*
X199880Y95725D01*
X199834Y95809D01*
X199785Y95891D01*
X199732Y95972D01*
X199676Y96050D01*
X199617Y96126D01*
X199555Y96199D01*
X199491Y96270D01*
X199423Y96339D01*
X199353Y96404D01*
X199280Y96467D01*
X199204Y96527D01*
X199127Y96583D01*
X199047Y96637D01*
X198965Y96687D01*
X198881Y96734D01*
X198796Y96778D01*
X198708Y96818D01*
X198619Y96854D01*
X198529Y96887D01*
X198322Y96986D01*
X198112Y97079D01*
X197899Y97167D01*
X197685Y97250D01*
X197469Y97328D01*
X197251Y97401D01*
X197031Y97469D01*
X196810Y97531D01*
X196587Y97588D01*
X196363Y97640D01*
X196138Y97686D01*
X195912Y97727D01*
X195685Y97762D01*
X195457Y97792D01*
X195228Y97817D01*
X194999Y97836D01*
X194770Y97850D01*
X194540Y97858D01*
X194310Y97861D01*
X194310Y91369D02*
X194080Y91372D01*
X193850Y91380D01*
X193621Y91394D01*
X193392Y91413D01*
X193163Y91438D01*
X192935Y91468D01*
X192708Y91503D01*
X192482Y91544D01*
X192257Y91590D01*
X192033Y91642D01*
X191810Y91699D01*
X191589Y91761D01*
X191369Y91829D01*
X191151Y91902D01*
X190935Y91980D01*
X190721Y92063D01*
X190509Y92151D01*
X190298Y92244D01*
X190091Y92343D01*
X190001Y92376D01*
X189912Y92412D01*
X189824Y92453D01*
X189739Y92496D01*
X189655Y92543D01*
X189573Y92593D01*
X189493Y92647D01*
X189416Y92703D01*
X189340Y92763D01*
X189267Y92826D01*
X189197Y92891D01*
X189129Y92960D01*
X189065Y93031D01*
X189003Y93104D01*
X188944Y93180D01*
X188888Y93258D01*
X188835Y93339D01*
X188786Y93421D01*
X188740Y93505D01*
X188697Y93592D01*
X188658Y93679D01*
X188622Y93769D01*
X188590Y93859D01*
X188562Y93951D01*
X188537Y94044D01*
X188516Y94138D01*
X188499Y94232D01*
X188485Y94327D01*
X188476Y94423D01*
X188470Y94519D01*
X188468Y94615D01*
X190091Y96887D02*
X190298Y96986D01*
X190509Y97079D01*
X190721Y97167D01*
X190935Y97250D01*
X191151Y97328D01*
X191369Y97401D01*
X191589Y97469D01*
X191810Y97531D01*
X192033Y97588D01*
X192257Y97640D01*
X192482Y97686D01*
X192708Y97727D01*
X192935Y97762D01*
X193163Y97792D01*
X193392Y97817D01*
X193621Y97836D01*
X193850Y97850D01*
X194080Y97858D01*
X194310Y97861D01*
X190091Y96887D02*
X190001Y96854D01*
X189912Y96818D01*
X189824Y96778D01*
X189739Y96734D01*
X189655Y96687D01*
X189573Y96637D01*
X189493Y96583D01*
X189416Y96527D01*
X189340Y96467D01*
X189267Y96404D01*
X189197Y96339D01*
X189129Y96270D01*
X189065Y96199D01*
X189003Y96126D01*
X188944Y96050D01*
X188888Y95972D01*
X188835Y95891D01*
X188786Y95809D01*
X188740Y95725D01*
X188697Y95638D01*
X188658Y95551D01*
X188622Y95461D01*
X188590Y95371D01*
X188562Y95279D01*
X188537Y95186D01*
X188516Y95092D01*
X188499Y94998D01*
X188485Y94903D01*
X188476Y94807D01*
X188470Y94711D01*
X188468Y94615D01*
X191064Y92019D02*
X197556Y97211D01*
X194959Y102799D02*
X194959Y106694D01*
X194957Y106793D01*
X194951Y106893D01*
X194942Y106992D01*
X194929Y107090D01*
X194912Y107188D01*
X194891Y107286D01*
X194866Y107382D01*
X194838Y107477D01*
X194806Y107571D01*
X194771Y107664D01*
X194732Y107756D01*
X194689Y107846D01*
X194644Y107934D01*
X194594Y108021D01*
X194542Y108105D01*
X194486Y108188D01*
X194428Y108268D01*
X194366Y108346D01*
X194301Y108421D01*
X194233Y108494D01*
X194163Y108564D01*
X194090Y108632D01*
X194015Y108697D01*
X193937Y108759D01*
X193857Y108817D01*
X193774Y108873D01*
X193690Y108925D01*
X193603Y108975D01*
X193515Y109020D01*
X193425Y109063D01*
X193333Y109102D01*
X193240Y109137D01*
X193146Y109169D01*
X193051Y109197D01*
X192955Y109222D01*
X192857Y109243D01*
X192759Y109260D01*
X192661Y109273D01*
X192562Y109282D01*
X192462Y109288D01*
X192363Y109290D01*
X192363Y109291D02*
X191714Y109291D01*
X191601Y109289D01*
X191488Y109283D01*
X191375Y109273D01*
X191262Y109259D01*
X191150Y109242D01*
X191039Y109220D01*
X190929Y109195D01*
X190819Y109165D01*
X190711Y109132D01*
X190604Y109095D01*
X190498Y109055D01*
X190394Y109010D01*
X190291Y108962D01*
X190190Y108911D01*
X190091Y108856D01*
X189994Y108798D01*
X189899Y108736D01*
X189806Y108671D01*
X189716Y108603D01*
X189628Y108532D01*
X189542Y108457D01*
X189459Y108380D01*
X189379Y108300D01*
X189302Y108217D01*
X189227Y108131D01*
X189156Y108043D01*
X189088Y107953D01*
X189023Y107860D01*
X188961Y107765D01*
X188903Y107668D01*
X188848Y107569D01*
X188797Y107468D01*
X188749Y107365D01*
X188704Y107261D01*
X188664Y107155D01*
X188627Y107048D01*
X188594Y106940D01*
X188564Y106830D01*
X188539Y106720D01*
X188517Y106609D01*
X188500Y106497D01*
X188486Y106384D01*
X188476Y106271D01*
X188470Y106158D01*
X188468Y106045D01*
X188470Y105932D01*
X188476Y105819D01*
X188486Y105706D01*
X188500Y105593D01*
X188517Y105481D01*
X188539Y105370D01*
X188564Y105260D01*
X188594Y105150D01*
X188627Y105042D01*
X188664Y104935D01*
X188704Y104829D01*
X188749Y104725D01*
X188797Y104622D01*
X188848Y104521D01*
X188903Y104422D01*
X188961Y104325D01*
X189023Y104230D01*
X189088Y104137D01*
X189156Y104047D01*
X189227Y103959D01*
X189302Y103873D01*
X189379Y103790D01*
X189459Y103710D01*
X189542Y103633D01*
X189628Y103558D01*
X189716Y103487D01*
X189806Y103419D01*
X189899Y103354D01*
X189994Y103292D01*
X190091Y103234D01*
X190190Y103179D01*
X190291Y103128D01*
X190394Y103080D01*
X190498Y103035D01*
X190604Y102995D01*
X190711Y102958D01*
X190819Y102925D01*
X190929Y102895D01*
X191039Y102870D01*
X191150Y102848D01*
X191262Y102831D01*
X191375Y102817D01*
X191488Y102807D01*
X191601Y102801D01*
X191714Y102799D01*
X194959Y102799D01*
X195102Y102801D01*
X195245Y102807D01*
X195388Y102817D01*
X195530Y102831D01*
X195672Y102848D01*
X195814Y102870D01*
X195955Y102895D01*
X196095Y102925D01*
X196234Y102958D01*
X196372Y102995D01*
X196509Y103036D01*
X196645Y103080D01*
X196780Y103129D01*
X196913Y103181D01*
X197045Y103236D01*
X197175Y103296D01*
X197304Y103359D01*
X197431Y103425D01*
X197555Y103495D01*
X197678Y103568D01*
X197799Y103645D01*
X197918Y103725D01*
X198034Y103808D01*
X198149Y103894D01*
X198260Y103983D01*
X198370Y104076D01*
X198476Y104171D01*
X198580Y104270D01*
X198681Y104371D01*
X198780Y104475D01*
X198875Y104581D01*
X198968Y104691D01*
X199057Y104802D01*
X199143Y104917D01*
X199226Y105033D01*
X199306Y105152D01*
X199383Y105273D01*
X199456Y105395D01*
X199526Y105520D01*
X199592Y105647D01*
X199655Y105776D01*
X199715Y105906D01*
X199770Y106038D01*
X199822Y106171D01*
X199871Y106306D01*
X199915Y106442D01*
X199956Y106579D01*
X199993Y106717D01*
X200026Y106856D01*
X200056Y106996D01*
X200081Y107137D01*
X200103Y107279D01*
X200120Y107421D01*
X200134Y107563D01*
X200144Y107706D01*
X200150Y107849D01*
X200152Y107992D01*
M02*
